<?xml version="1.0" encoding="UTF-8" standalone="no"?>
<!-- Created with Inkscape (http://www.inkscape.org/) -->

<svg
   width="512"
   height="512"
   viewBox="0 0 135.46666 135.46667"
   version="1.1"
   id="svg1"
   inkscape:version="1.4 (e7c3feb1, 2024-10-09)"
   sodipodi:docname="secan_icon.svg"
   inkscape:export-filename="secan_icon.png"
   inkscape:export-xdpi="96"
   inkscape:export-ydpi="96"
   xmlns:inkscape="http://www.inkscape.org/namespaces/inkscape"
   xmlns:sodipodi="http://sodipodi.sourceforge.net/DTD/sodipodi-0.dtd"
   xmlns="http://www.w3.org/2000/svg"
   xmlns:svg="http://www.w3.org/2000/svg">
  <sodipodi:namedview
     id="namedview1"
     pagecolor="#ffffff"
     bordercolor="#000000"
     borderopacity="0.25"
     inkscape:showpageshadow="2"
     inkscape:pageopacity="0.0"
     inkscape:pagecheckerboard="0"
     inkscape:deskcolor="#d1d1d1"
     inkscape:document-units="px"
     inkscape:zoom="0.73383454"
     inkscape:cx="236.42932"
     inkscape:cy="350.89654"
     inkscape:window-width="1456"
     inkscape:window-height="874"
     inkscape:window-x="7"
     inkscape:window-y="38"
     inkscape:window-maximized="0"
     inkscape:current-layer="layer1"
     inkscape:export-bgcolor="#ffffff00" />
  <defs
     id="defs1" />
  <g
     inkscape:label="Layer 1"
     inkscape:groupmode="layer"
     id="layer1">
    <circle
       style="fill:#ffffff;fill-opacity:1;stroke:none;stroke-width:0.26458333;stroke-dasharray:none;stroke-opacity:1"
       id="path8-02"
       cx="67.73333"
       cy="67.73333"
       r="67.73333" />
    <path
       style="fill:none;fill-opacity:1;stroke:#000000;stroke-width:3.96875;stroke-dasharray:none;stroke-opacity:1"
       d="M 17.331751,105.27443 H 55.49724 c 11.09608,0 11.933939,-23.092241 18.997667,-23.040164 2.844458,9e-6 4.528637,1.998013 7.104109,1.998013 8.302822,0 12.60918,-68.339249 18.406404,-68.208582 5.79722,0.130667 7.87027,89.250733 19.30265,89.250733"
       id="path6"
       sodipodi:nodetypes="czcczc" />
    <ellipse
       style="fill:#ffffff;fill-opacity:1;stroke:none;stroke-width:1.75;stroke-dasharray:none;stroke-opacity:1"
       id="path8"
       cx="61.725338"
       cy="88.658081"
       rx="40.760811"
       ry="40.758572" />
    <rect
       style="fill:none;fill-opacity:1;stroke:#000000;stroke-width:2.11667;stroke-dasharray:none;stroke-opacity:1"
       id="rect2-8"
       width="6.9650497"
       height="7.5943103"
       x="6.8263068"
       y="-74.230164"
       transform="matrix(-0.76064419,0.64916902,-0.64853736,-0.76118282,0,0)" />
    <rect
       style="fill:#000000;fill-opacity:1;stroke:#000000;stroke-width:0.999997;stroke-dasharray:none;stroke-opacity:1"
       id="rect3-5"
       width="9.9094019"
       height="49.255939"
       x="5.3944206"
       y="-66.786575"
       ry="3.6812427"
       transform="matrix(-0.7606655,0.64914406,-0.64856234,-0.76116154,0,0)" />
    <path
       style="fill:#982dc8;fill-opacity:1;stroke:#000000;stroke-width:2.11667;stroke-dasharray:4.23333, 4.23333;stroke-dashoffset:0;stroke-opacity:1"
       d="M 34.221801,98.646725 H 93.939415 L 91.229245,77.439234 80.41223,63.317787 73.907704,75.309423 65.92989,71.742193"
       id="path9"
       sodipodi:nodetypes="cccccc" />
    <path
       style="fill:#fefefe;fill-opacity:1;stroke:#000000;stroke-width:3.96875;stroke-dasharray:none;stroke-opacity:1"
       d="m 30.945969,98.653915 h 14.988529 c 5.990635,0 11.13507,-26.389814 17.952809,-26.233233 4.829977,0.05546 5.219629,2.619457 9.951884,2.619457 3.935377,0 6.304884,-15.084591 6.304884,-15.084591"
       id="path7"
       sodipodi:nodetypes="ccccc" />
    <ellipse
       style="fill:none;fill-opacity:1;stroke:#ffffff;stroke-width:10.5833;stroke-dasharray:none;stroke-opacity:1"
       id="path8-0"
       cx="62.317394"
       cy="88.657372"
       rx="29.999296"
       ry="29.997644" />
    <path
       id="path1-6"
       style="fill:#6a6a6a;fill-opacity:1;stroke:#000000;stroke-width:2.11667;stroke-dasharray:none;stroke-opacity:1"
       d="m 85.58958,116.43929 a 36.573896,36.599754 16.116081 0 0 4.108422,-51.595089 36.573896,36.599754 16.116081 0 0 -51.562707,-4.091424 36.573896,36.599754 16.116081 0 0 -4.108424,51.595103 36.573896,36.599754 16.116081 0 0 51.562709,4.09141 z m -4.745431,-5.56864 a 29.25912,29.279806 16.116098 0 1 -41.250166,-3.27313 29.25912,29.279806 16.116098 0 1 3.286742,-41.276086 29.25912,29.279806 16.116098 0 1 41.250162,3.273141 29.25912,29.279806 16.116098 0 1 -3.286738,41.276075 z" />
  </g>
</svg>
